# xmcd CD database file
#
# Track frame offsets:
#	150
#	22070
#	41085
#	62975
#
# Disc length: 1092 seconds
#
# Revision: 0
# Processed by: cddbd v1.5.1PL0 Copyright (c) Steve Scherf et al.
# Submitted via: CDex 1.50beta9
#
DISCID=35044204
DTITLE=嘉門達夫 - GO!GO!スクールメイツ
DYEAR=1993
DGENRE=JPop
TTITLE0=GO!GO!スクールメイツ
TTITLE1=替え唄メドレー 〜紅白バージョン〜
TTITLE2=GO!GO!スクールメイツ(karaoke)
TTITLE3=替え唄メドレー 〜紅白バージョン〜(karaoke)
EXTD=YEAR: 1993
EXTT0=
EXTT1=
EXTT2=
EXTT3=
PLAYORDER=
